<svg width="13" height="13" viewBox="0 0 13 13" fill="none" xmlns="http://www.w3.org/2000/svg">
<path d="M5.0337 0.539581C3.64124 0.539581 2.52385 1.49589 2.52385 3.32358C2.52385 4.51712 2.99924 5.73281 3.72108 6.48189C4.00262 7.23097 3.49493 7.50973 3.3897 7.54943C1.93262 8.08389 0.230469 9.05312 0.230469 10.0159V10.3759C0.230469 11.688 2.72924 11.9913 5.04754 11.9913C5.55284 11.9904 6.05794 11.9713 6.56185 11.934C5.93086 11.268 5.57991 10.385 5.58155 9.46758C5.58155 8.64097 5.86308 7.88358 6.33108 7.27527C6.26185 7.11281 6.23416 6.85666 6.36016 6.46758C7.07785 5.71758 7.54308 4.5125 7.54308 3.32312C7.54308 1.49589 6.42431 0.540043 5.03324 0.540043L5.0337 0.539581ZM9.18754 6.55389C8.41485 6.55389 7.6738 6.86084 7.12742 7.40722C6.58104 7.9536 6.27408 8.69465 6.27408 9.46735C6.27408 10.24 6.58104 10.9811 7.12742 11.5275C7.6738 12.0739 8.41485 12.3808 9.18754 12.3808C9.96024 12.3808 10.7013 12.0739 11.2477 11.5275C11.7941 10.9811 12.101 10.24 12.101 9.46735C12.101 8.69465 11.7941 7.9536 11.2477 7.40722C10.7013 6.86084 9.96024 6.55389 9.18754 6.55389ZM8.7837 7.8522H9.59139V9.04943H10.7886V9.88573H9.59139V11.083H8.7837V9.88573H7.57216V9.04943H8.7837V7.8522Z" fill="white"/>
</svg>
