<svg width="14" height="13" viewBox="0 0 14 13" fill="none" xmlns="http://www.w3.org/2000/svg">
<path d="M11.9426 8.02435H5.072L5.2254 8.77435H11.5164C11.8774 8.77435 12.1449 9.10953 12.065 9.46152L11.9356 10.0305C12.3737 10.2431 12.6758 10.6922 12.6758 11.2119C12.6758 11.9431 12.0777 12.5348 11.344 12.5242C10.645 12.5142 10.0701 11.9469 10.0513 11.2481C10.041 10.8664 10.1939 10.5204 10.4451 10.2743H5.53147C5.77468 10.5126 5.92578 10.8445 5.92578 11.2119C5.92578 11.9575 5.30403 12.5579 4.5507 12.5229C3.8818 12.4918 3.33779 11.9514 3.30263 11.2827C3.27549 10.7662 3.54723 10.3111 3.96008 10.0736L2.31366 2.02435H0.675781C0.365117 2.02435 0.113281 1.77252 0.113281 1.46185V1.08685C0.113281 0.776189 0.365117 0.524353 0.675781 0.524353H3.0788C3.34602 0.524353 3.57634 0.712345 3.62989 0.974119L3.84472 2.02435H13.0505C13.4115 2.02435 13.679 2.35953 13.5991 2.71152L12.4911 7.58652C12.4329 7.84262 12.2052 8.02435 11.9426 8.02435ZM9.67578 4.46185H8.55078V3.52435C8.55078 3.31724 8.3829 3.14935 8.17578 3.14935H7.80078C7.59366 3.14935 7.42578 3.31724 7.42578 3.52435V4.46185H6.30078C6.09366 4.46185 5.92578 4.62974 5.92578 4.83685V5.21185C5.92578 5.41897 6.09366 5.58685 6.30078 5.58685H7.42578V6.52435C7.42578 6.73147 7.59366 6.89935 7.80078 6.89935H8.17578C8.3829 6.89935 8.55078 6.73147 8.55078 6.52435V5.58685H9.67578C9.8829 5.58685 10.0508 5.41897 10.0508 5.21185V4.83685C10.0508 4.62974 9.8829 4.46185 9.67578 4.46185Z" fill="white"/>
</svg>
