<svg xmlns="http://www.w3.org/2000/svg" viewBox="0 0 83.05 93.25"><defs><style>.cls-1{fill:#9292fc;}.cls-2{fill:#4f4faa;}.cls-3{fill:#fff;}.cls-4{fill:none;stroke:#fff;stroke-linecap:round;stroke-linejoin:round;stroke-width:4px;}</style></defs><title>Asset 19</title><g id="Layer_2" data-name="Layer 2"><g id="Layer_1-2" data-name="Layer 1"><path class="cls-1" d="M54.72.74c-1.11-1.11-2.33-.49-2.33.73V17.05c0,1.6.36,2.21,2,2.21H69.81c1.59,0,2.08-1.35,1-2.45Z"/><path class="cls-2" d="M47.23,19.51V4.05a4,4,0,0,0-4-4H5.52C2.58,0,0,2,0,4.91V88.22a5,5,0,0,0,5,5H66.62A5.23,5.23,0,0,0,71.89,88V28.34a4.61,4.61,0,0,0-4.53-4.54H51A4.11,4.11,0,0,1,47.23,19.51Z"/><path class="cls-3" d="M35.09,37.19,25.72,26.7a3.35,3.35,0,0,0-5,0L11.37,37.19a3.34,3.34,0,0,0,2.49,5.56h3.62V55.54A3.46,3.46,0,0,0,20.94,59h4.58A3.46,3.46,0,0,0,29,55.54V42.75H32.6A3.34,3.34,0,0,0,35.09,37.19Z"/><circle class="cls-3" cx="61.89" cy="62.35" r="21.17"/><circle class="cls-2" cx="61.89" cy="62.35" r="16.77"/><polyline class="cls-4" points="70.84 56.09 61.89 64.35 56.14 58.87"/></g></g></svg>