<svg xmlns="http://www.w3.org/2000/svg" viewBox="0 0 71.89 93.25"><defs><style>.cls-1{fill:#9292fc;}.cls-2{fill:#4f4faa;}.cls-3{fill:#fff;}</style></defs><title>Asset 27</title><g id="Layer_2" data-name="Layer 2"><g id="Layer_1-2" data-name="Layer 1"><path class="cls-1" d="M54.72.74c-1.11-1.11-2.33-.49-2.33.73V17.05c0,1.6.36,2.21,2,2.21H69.81c1.59,0,2.08-1.35,1-2.45Z"/><path class="cls-2" d="M47.23,19.51V4.05a4,4,0,0,0-4-4H5.52C2.58,0,0,2,0,4.91V88.22a5,5,0,0,0,5,5H66.62A5.23,5.23,0,0,0,71.89,88V28.34a4.61,4.61,0,0,0-4.53-4.54H51A4.11,4.11,0,0,1,47.23,19.51Z"/><path class="cls-3" d="M42.74,38.15a16.21,16.21,0,0,0-15-14.67V38.15Z"/><path class="cls-3" d="M25.27,23.49A16.22,16.22,0,1,0,42.77,40.6H25.27Z"/><path class="cls-3" d="M34.06,69.37H11a.67.67,0,0,1-.58-.73V65.2c0-.36.29-.73.58-.73H34.12c.35,0,.58.37.58.73v3.56A.69.69,0,0,1,34.06,69.37Z"/><path class="cls-3" d="M34.06,81.35H11c-.35,0-.58-.37-.58-.74V77.17c0-.36.29-.73.58-.73H34.12c.35,0,.58.37.58.73v3.56A.7.7,0,0,1,34.06,81.35Z"/><path class="cls-3" d="M63,69.37H39.86a.67.67,0,0,1-.58-.73V65.2c0-.36.29-.73.58-.73H63a.68.68,0,0,1,.59.73v3.56A.69.69,0,0,1,63,69.37Z"/><path class="cls-3" d="M63,81.35H39.86c-.35,0-.58-.37-.58-.74V77.17c0-.36.29-.73.58-.73H63a.68.68,0,0,1,.59.73v3.56A.7.7,0,0,1,63,81.35Z"/></g></g></svg>