<svg xmlns="http://www.w3.org/2000/svg" viewBox="0 0 85.956 64.969">
  <defs>
    <style>
      .cls-1, .cls-5 {
        fill: #ffd54b;
      }

      .cls-1, .cls-2, .cls-3, .cls-4, .cls-5, .cls-6 {
        stroke: #000;
        stroke-miterlimit: 10;
      }

      .cls-1 {
        stroke-width: 1.026px;
      }

      .cls-2 {
        fill: #f9a61f;
        stroke-width: 0.939px;
      }

      .cls-2, .cls-3, .cls-4, .cls-5, .cls-6 {
        stroke-linecap: round;
        stroke-linejoin: round;
      }

      .cls-3, .cls-4 {
        fill: #fff;
      }

      .cls-3 {
        stroke-width: 1.019px;
      }

      .cls-6 {
        fill: none;
      }
    </style>
  </defs>
  <g id="Group_1153" data-name="Group 1153" transform="translate(0.556 -3.031)">
    <g id="Group_1157" data-name="Group 1157" transform="translate(-0.087 3.5)">
      <rect id="Rectangle_159" data-name="Rectangle 159" class="cls-1" width="13.068" height="30.4" transform="translate(53.396 21.4)"/>
      <rect id="Rectangle_160" data-name="Rectangle 160" class="cls-1" width="13.068" height="30.4" transform="translate(8.576 21.4)"/>
      <rect id="Rectangle_161" data-name="Rectangle 161" class="cls-1" width="13.068" height="30.4" transform="translate(30.935 21.4)"/>
      <path id="Path_656" data-name="Path 656" class="cls-2" d="M37.644.5,1.4,23H73.99Z" transform="translate(-0.481 -0.5)"/>
      <g id="Group_1097" data-name="Group 1097" transform="translate(0 50)">
        <path id="Path_657" data-name="Path 657" class="cls-2" d="M5,54.8V50.5H70.239v4.3" transform="translate(-0.406 -50.5)"/>
        <rect id="Rectangle_162" data-name="Rectangle 162" class="cls-2" width="74.428" height="4.2" transform="translate(0 4.4)"/>
      </g>
      <ellipse id="Ellipse_105" data-name="Ellipse 105" class="cls-3" cx="3.675" cy="3.6" rx="3.675" ry="3.6" transform="translate(33.487 9.1)"/>
    </g>
    <g id="Group_1150" data-name="Group 1150">
      <path id="Path_679" data-name="Path 679" class="cls-4" d="M79.6,67.5H42.3a5.228,5.228,0,0,1-5.2-5.2V42.5a5.228,5.228,0,0,1,5.2-5.2H79.7a5.228,5.228,0,0,1,5.2,5.2V62.4A5.3,5.3,0,0,1,79.6,67.5Z"/>
      <g id="Group_1149" data-name="Group 1149">
        <circle id="Ellipse_118" data-name="Ellipse 118" class="cls-5" cx="3.2" cy="3.2" r="3.2" transform="translate(68.6 56.7)"/>
        <circle id="Ellipse_119" data-name="Ellipse 119" class="cls-5" cx="3.2" cy="3.2" r="3.2" transform="translate(73 56.7)"/>
      </g>
      <line id="Line_245" data-name="Line 245" class="cls-6" x2="19" transform="translate(42.7 56.7)"/>
      <line id="Line_246" data-name="Line 246" class="cls-6" x2="5.2" transform="translate(42.7 59)"/>
      <line id="Line_247" data-name="Line 247" class="cls-6" x2="5.2" transform="translate(56.5 59)"/>
    </g>
  </g>
</svg>
