<svg id="Layer_1" data-name="Layer 1" xmlns="http://www.w3.org/2000/svg" viewBox="0 0 64 64"><defs><style>.cls-1{fill:#fce832;}.cls-1,.cls-2,.cls-4{stroke:#273751;}.cls-1,.cls-4{stroke-miterlimit:10;stroke-width:0.94px;}.cls-2{fill:#fff;}.cls-2,.cls-3{stroke-linecap:round;stroke-linejoin:round;stroke-width:1.02px;}.cls-3{fill:none;stroke:#aaa;}.cls-4{fill:#febf36;}</style></defs><title>bulk</title><path class="cls-1" d="M16,61H54.92A4.09,4.09,0,0,0,59,56.91l.13-30.69a4.09,4.09,0,0,0-4.08-4.07H16.13a4.08,4.08,0,0,0-4.07,4.07l-.13,30.69A4.09,4.09,0,0,0,16,61Z"/><rect class="cls-2" x="9.42" y="15.35" width="37.01" height="34.63"/><line class="cls-3" x1="19.44" y1="24.52" x2="37.78" y2="24.52"/><line class="cls-3" x1="19.44" y1="30.47" x2="37.78" y2="30.47"/><line class="cls-3" x1="19.44" y1="36.41" x2="37.78" y2="36.41"/><line class="cls-3" x1="19.44" y1="42.35" x2="37.78" y2="42.35"/><rect class="cls-2" x="12.99" y="10.94" width="37.01" height="34.63"/><line class="cls-3" x1="23" y1="20.11" x2="41.34" y2="20.11"/><line class="cls-3" x1="23" y1="26.05" x2="41.34" y2="26.05"/><line class="cls-3" x1="23" y1="31.99" x2="41.34" y2="31.99"/><line class="cls-3" x1="23" y1="37.94" x2="41.34" y2="37.94"/><rect class="cls-2" x="16.72" y="6.36" width="37.01" height="34.63"/><line class="cls-3" x1="26.74" y1="14.53" x2="45.08" y2="14.53"/><line class="cls-3" x1="26.74" y1="20.47" x2="45.08" y2="20.47"/><line class="cls-3" x1="26.74" y1="26.41" x2="45.08" y2="26.41"/><line class="cls-3" x1="26.74" y1="32.35" x2="45.08" y2="32.35"/><path class="cls-4" d="M55.09,30.47H23.92V28.83a3.76,3.76,0,0,0-3.75-3.75H8.64a3.76,3.76,0,0,0-3.75,3.75L5,57A4.1,4.1,0,0,0,9.09,61h46A4.1,4.1,0,0,0,59.17,57V34.54A4.09,4.09,0,0,0,55.09,30.47Z"/></svg>