<svg width="15" height="15" viewBox="0 0 15 15" fill="none" xmlns="http://www.w3.org/2000/svg">
<g clip-path="url(#clip0)">
<path d="M9.41135 8.9356H8.39826V12.2483C8.39826 12.3084 8.34904 12.3577 8.28889 12.3577H7.46858C7.40842 12.3577 7.3592 12.3084 7.3592 12.2483V8.9356H6.34885C6.25725 8.9356 6.20667 8.83032 6.26272 8.75923L7.79397 6.82192C7.8042 6.80885 7.81727 6.79828 7.83219 6.79101C7.84712 6.78374 7.8635 6.77996 7.8801 6.77996C7.8967 6.77996 7.91308 6.78374 7.92801 6.79101C7.94293 6.79828 7.956 6.80885 7.96623 6.82192L9.49748 8.75923C9.55353 8.83032 9.50295 8.9356 9.41135 8.9356Z" fill="white"/>
<path d="M11.9732 5.55913C11.3471 3.90757 9.75156 2.73315 7.88262 2.73315C6.01367 2.73315 4.41816 3.9062 3.79199 5.55776C2.62031 5.86538 1.75488 6.93315 1.75488 8.2019C1.75488 9.71265 2.97852 10.9363 4.48789 10.9363H5.03613C5.09629 10.9363 5.14551 10.8871 5.14551 10.8269V10.0066C5.14551 9.94644 5.09629 9.89722 5.03613 9.89722H4.48789C4.02715 9.89722 3.59375 9.71401 3.27109 9.38179C2.9498 9.05093 2.77891 8.60522 2.79395 8.14312C2.80625 7.78218 2.9293 7.44312 3.15215 7.15737C3.38047 6.86616 3.70039 6.65425 4.05586 6.55991L4.57402 6.42456L4.76406 5.92417C4.88164 5.61245 5.0457 5.32124 5.25215 5.05737C5.45596 4.79584 5.69738 4.56594 5.96855 4.37515C6.53047 3.98003 7.19219 3.77085 7.88262 3.77085C8.57305 3.77085 9.23477 3.98003 9.79668 4.37515C10.0688 4.56655 10.3094 4.79624 10.5131 5.05737C10.7195 5.32124 10.8836 5.61382 11.0012 5.92417L11.1898 6.42319L11.7066 6.55991C12.4477 6.75952 12.9658 7.43355 12.9658 8.2019C12.9658 8.65444 12.7895 9.08101 12.4695 9.40093C12.3126 9.55874 12.126 9.68386 11.9204 9.76905C11.7148 9.85424 11.4944 9.8978 11.2719 9.89722H10.7236C10.6635 9.89722 10.6143 9.94644 10.6143 10.0066V10.8269C10.6143 10.8871 10.6635 10.9363 10.7236 10.9363H11.2719C12.7812 10.9363 14.0049 9.71265 14.0049 8.2019C14.0049 6.93452 13.1422 5.86812 11.9732 5.55913Z" fill="white"/>
</g>
<defs>
<clipPath id="clip0">
<rect x="0.879883" y="0.545654" width="14" height="14" fill="white"/>
</clipPath>
</defs>
</svg>
