<svg width="15" height="15" viewBox="0 0 15 15" fill="none" xmlns="http://www.w3.org/2000/svg">
<g clip-path="url(#clip0)">
<path d="M9.49728 10.2021H8.4842V6.8894C8.4842 6.82925 8.43498 6.78003 8.37483 6.78003H7.55451C7.49436 6.78003 7.44514 6.82925 7.44514 6.8894V10.2021H6.43479C6.34319 10.2021 6.2926 10.3074 6.34866 10.3785L7.8799 12.3158C7.89014 12.3288 7.90321 12.3394 7.91813 12.3467C7.93305 12.354 7.94944 12.3577 7.96604 12.3577C7.98264 12.3577 7.99902 12.354 8.01394 12.3467C8.02887 12.3394 8.04194 12.3288 8.05217 12.3158L9.58342 10.3785C9.63947 10.3074 9.58888 10.2021 9.49728 10.2021Z" fill="white"/>
<path d="M12.0592 5.55913C11.433 3.90757 9.8375 2.73315 7.96855 2.73315C6.09961 2.73315 4.5041 3.9062 3.87793 5.55776C2.70625 5.86538 1.84082 6.93315 1.84082 8.2019C1.84082 9.71265 3.06445 10.9363 4.57383 10.9363H5.12207C5.18223 10.9363 5.23145 10.8871 5.23145 10.8269V10.0066C5.23145 9.94644 5.18223 9.89722 5.12207 9.89722H4.57383C4.11309 9.89722 3.67969 9.71401 3.35703 9.38179C3.03574 9.05093 2.86484 8.60522 2.87988 8.14312C2.89219 7.78218 3.01523 7.44312 3.23809 7.15737C3.46641 6.86616 3.78633 6.65425 4.1418 6.55991L4.65996 6.42456L4.85 5.92417C4.96758 5.61245 5.13164 5.32124 5.33809 5.05737C5.54189 4.79584 5.78332 4.56594 6.05449 4.37515C6.61641 3.98003 7.27813 3.77085 7.96855 3.77085C8.65898 3.77085 9.3207 3.98003 9.88262 4.37515C10.1547 4.56655 10.3953 4.79624 10.599 5.05737C10.8055 5.32124 10.9695 5.61382 11.0871 5.92417L11.2758 6.42319L11.7926 6.55991C12.5336 6.75952 13.0518 7.43355 13.0518 8.2019C13.0518 8.65444 12.8754 9.08101 12.5555 9.40093C12.3986 9.55874 12.2119 9.68386 12.0064 9.76905C11.8008 9.85424 11.5803 9.8978 11.3578 9.89722H10.8096C10.7494 9.89722 10.7002 9.94644 10.7002 10.0066V10.8269C10.7002 10.8871 10.7494 10.9363 10.8096 10.9363H11.3578C12.8672 10.9363 14.0908 9.71265 14.0908 8.2019C14.0908 6.93452 13.2281 5.86812 12.0592 5.55913Z" fill="white"/>
</g>
<defs>
<clipPath id="clip0">
<rect x="0.96582" y="0.545654" width="14" height="14" fill="white"/>
</clipPath>
</defs>
</svg>
