<svg width="11" height="9" viewBox="0 0 11 9" fill="none" xmlns="http://www.w3.org/2000/svg">
<path d="M8.04883 7.5H1.54883V3H2.84633C2.84633 3 3.19083 2.552 3.93133 2H1.04883C0.91622 2 0.789043 2.05268 0.695275 2.14645C0.601507 2.24022 0.548828 2.36739 0.548828 2.5L0.548828 8C0.548828 8.13261 0.601507 8.25979 0.695275 8.35356C0.789043 8.44732 0.91622 8.5 1.04883 8.5H8.54883C8.68144 8.5 8.80861 8.44732 8.90238 8.35356C8.99615 8.25979 9.04883 8.13261 9.04883 8V6.127L8.04883 6.9495V7.5ZM7.22933 4.025V5.8005L10.5488 3.2L7.22933 0.7005V2.266C3.19883 2.266 3.19883 6.25 3.19883 6.25C4.33983 4.376 5.04183 4.025 7.22933 4.025Z" fill="white"/>
</svg>
