<svg xmlns="http://www.w3.org/2000/svg" viewBox="0 0 71.89 93.25"><defs><style>.cls-1{fill:#9292fc;}.cls-2{fill:#4f4faa;}.cls-3{fill:#fff;}</style></defs><title>Asset 25</title><g id="Layer_2" data-name="Layer 2"><g id="Layer_1-2" data-name="Layer 1"><path class="cls-1" d="M54.72.74c-1.11-1.11-2.33-.49-2.33.73V17.05c0,1.6.36,2.21,2,2.21H69.81c1.59,0,2.08-1.35,1-2.45Z"/><path class="cls-2" d="M47.23,19.51V4.05a4,4,0,0,0-4-4H5.52C2.58,0,0,2,0,4.91V88.22a5,5,0,0,0,5,5H66.62A5.23,5.23,0,0,0,71.89,88V28.34a4.61,4.61,0,0,0-4.53-4.54H51A4.11,4.11,0,0,1,47.23,19.51Z"/><path class="cls-3" d="M60.37,42.29H11.46c-.74,0-1.24-.37-1.24-.74V38.09c0-.37.62-.74,1.24-.74h49c.74,0,1.24.37,1.24.74v3.58C61.61,42,61,42.29,60.37,42.29Z"/><path class="cls-3" d="M60.37,54.34H11.46c-.74,0-1.24-.37-1.24-.74V50.14c0-.37.62-.74,1.24-.74h49c.74,0,1.24.37,1.24.74v3.59C61.61,54.1,61,54.34,60.37,54.34Z"/><path class="cls-3" d="M60.37,66.4H11.46c-.74,0-1.24-.37-1.24-.74V62.2c0-.37.62-.74,1.24-.74h49c.74,0,1.24.37,1.24.74v3.58C61.61,66.15,61,66.4,60.37,66.4Z"/><path class="cls-3" d="M60.37,78.45H11.46c-.74,0-1.24-.37-1.24-.74V74.25c0-.37.62-.74,1.24-.74h49c.74,0,1.24.37,1.24.74v3.58C61.61,78.2,61,78.45,60.37,78.45Z"/></g></g></svg>