<svg width="9" height="8" viewBox="0 0 9 8" fill="none" xmlns="http://www.w3.org/2000/svg">
<path d="M8.04542 8H7.04639C6.9059 8 6.78753 7.95052 6.69127 7.85156C6.59501 7.7526 6.54688 7.63542 6.54688 7.5V6.5C6.54688 6.35938 6.59501 6.24089 6.69127 6.14453C6.78753 6.04818 6.9059 6 7.04639 6H8.04542C8.1807 6 8.29777 6.04818 8.39664 6.14453C8.4955 6.24089 8.54493 6.35938 8.54493 6.5V7.5C8.54493 7.63542 8.4955 7.7526 8.39664 7.85156C8.29777 7.95052 8.1807 8 8.04542 8ZM8.04542 5H7.04639C6.9059 5 6.78753 4.95182 6.69127 4.85547C6.59501 4.75911 6.54688 4.64062 6.54688 4.5V3.5C6.54688 3.35938 6.59501 3.24089 6.69127 3.14453C6.78753 3.04818 6.9059 3 7.04639 3H8.04542C8.1807 3 8.29777 3.04818 8.39664 3.14453C8.4955 3.24089 8.54493 3.35938 8.54493 3.5V4.5C8.54493 4.63542 8.4955 4.7526 8.39664 4.85156C8.29777 4.95052 8.1807 5 8.04542 5ZM8.04542 2H7.04639C6.9059 2 6.78753 1.95052 6.69127 1.85156C6.59501 1.7526 6.54688 1.63542 6.54688 1.5V0.5C6.54688 0.359375 6.59501 0.240885 6.69127 0.144531C6.78753 0.0481771 6.9059 0 7.04639 0H8.04542C8.1807 0 8.29777 0.0481771 8.39664 0.144531C8.4955 0.240885 8.54493 0.359375 8.54493 0.5V1.5C8.54493 1.63542 8.4955 1.7526 8.39664 1.85156C8.29777 1.95052 8.1807 2 8.04542 2ZM4.54883 8H1.55176C1.27599 8 1.04054 7.90234 0.845417 7.70703C0.650295 7.51172 0.552734 7.27604 0.552734 7V1C0.552734 0.723958 0.650295 0.488281 0.845417 0.292969C1.04054 0.0976562 1.27599 0 1.55176 0H4.54883C4.8246 0 5.06005 0.0976562 5.25517 0.292969C5.45029 0.488281 5.54786 0.723958 5.54786 1V7C5.54786 7.27604 5.45029 7.51172 5.25517 7.70703C5.06005 7.90234 4.8246 8 4.54883 8ZM4.54883 1.25C4.54883 1.18229 4.52412 1.1237 4.47469 1.07422C4.42525 1.02474 4.36672 1 4.29908 1H1.80151C1.73387 1 1.67534 1.02474 1.62591 1.07422C1.57647 1.1237 1.55176 1.18229 1.55176 1.25V6.75C1.55176 6.81771 1.57647 6.8763 1.62591 6.92578C1.67534 6.97526 1.73387 7 1.80151 7H4.29908C4.36672 7 4.42525 6.97526 4.47469 6.92578C4.52412 6.8763 4.54883 6.81771 4.54883 6.75V1.25Z" fill="white"/>
</svg>
