<svg width="10" height="13" viewBox="0 0 10 13" fill="none" xmlns="http://www.w3.org/2000/svg">
<path d="M7.50391 6.58112H3.00391V8.08112H7.50391V6.58112ZM9.58984 3.04205L7.29531 0.745178C7.18984 0.639709 7.04688 0.581116 6.89688 0.581116H6.75391V3.58112H9.75391V3.43815C9.75391 3.29049 9.69531 3.14752 9.58984 3.04205ZM6.00391 3.76862V0.581116H1.31641C1.00469 0.581116 0.753906 0.831897 0.753906 1.14362V12.0186C0.753906 12.3303 1.00469 12.5811 1.31641 12.5811H9.19141C9.50313 12.5811 9.75391 12.3303 9.75391 12.0186V4.33112H6.56641C6.25703 4.33112 6.00391 4.07799 6.00391 3.76862ZM2.25391 2.26862C2.25391 2.16502 2.33781 2.08112 2.44141 2.08112H4.31641C4.42 2.08112 4.50391 2.16502 4.50391 2.26862V2.64362C4.50391 2.74721 4.42 2.83112 4.31641 2.83112H2.44141C2.33781 2.83112 2.25391 2.74721 2.25391 2.64362V2.26862ZM2.25391 3.76862C2.25391 3.66502 2.33781 3.58112 2.44141 3.58112H4.31641C4.42 3.58112 4.50391 3.66502 4.50391 3.76862V4.14362C4.50391 4.24721 4.42 4.33112 4.31641 4.33112H2.44141C2.33781 4.33112 2.25391 4.24721 2.25391 4.14362V3.76862ZM8.25391 10.8936C8.25391 10.9972 8.17 11.0811 8.06641 11.0811H6.19141C6.08781 11.0811 6.00391 10.9972 6.00391 10.8936V10.5186C6.00391 10.415 6.08781 10.3311 6.19141 10.3311H8.06641C8.17 10.3311 8.25391 10.415 8.25391 10.5186V10.8936ZM8.25391 6.20612V8.45612C8.25391 8.6633 8.08609 8.83112 7.87891 8.83112H2.62891C2.42172 8.83112 2.25391 8.6633 2.25391 8.45612V6.20612C2.25391 5.99893 2.42172 5.83112 2.62891 5.83112H7.87891C8.08609 5.83112 8.25391 5.99893 8.25391 6.20612Z" fill="white"/>
</svg>
