<svg id="Layer_1" data-name="Layer 1" xmlns="http://www.w3.org/2000/svg" viewBox="0 0 64 64"><defs><style>.cls-1,.cls-4{fill:#febf36;}.cls-1,.cls-2{stroke:#273751;}.cls-1{stroke-miterlimit:10;}.cls-2{fill:#fff;}.cls-2,.cls-3{stroke-linecap:round;stroke-linejoin:round;}.cls-3{fill:none;stroke:#aaa;}.cls-5{fill:#fce832;}</style></defs><title>invoice</title><polygon class="cls-1" points="58.78 30.61 31.94 15.53 5.11 29.94 5.11 61.03 6.44 61.03 57.44 61.03 58.78 61.03 58.78 30.61"/><rect class="cls-2" x="13.11" y="6.36" width="36.33" height="44"/><line class="cls-3" x1="22.94" y1="15.36" x2="40.94" y2="15.36"/><line class="cls-3" x1="22.94" y1="21.19" x2="40.94" y2="21.19"/><line class="cls-3" x1="22.94" y1="27.02" x2="40.94" y2="27.02"/><line class="cls-3" x1="22.94" y1="32.86" x2="40.94" y2="32.86"/><polygon class="cls-4" points="5.86 30.19 5.86 60.53 58.19 60.53 5.86 30.19"/><line class="cls-2" x1="54.44" y1="58.53" x2="5.78" y2="30.69"/><polygon class="cls-5" points="58.19 31.36 58.28 60.53 6.78 60.61 58.19 31.36"/><line class="cls-2" x1="5.78" y1="60.61" x2="58.94" y2="30.69"/></svg>