<svg width="17" height="17" viewBox="0 0 17 17" fill="none" xmlns="http://www.w3.org/2000/svg">
<g clip-path="url(#clip0)">
<path d="M15.1354 10.6677L12.182 8.56499C12.1518 8.54333 12.1162 8.53047 12.0791 8.52785C12.0421 8.52522 12.005 8.53293 11.9721 8.55011C11.9042 8.58499 11.8626 8.66115 11.8625 8.73779L11.8639 9.73315H9.20693C9.09397 9.73315 8.98438 9.81267 8.98438 9.92579V11.7565C8.98438 11.8696 9.09397 11.9475 9.20693 11.9475H11.8908V12.9507C11.8908 13.0272 11.9202 13.0975 11.9882 13.1325C12.0562 13.1675 12.1247 13.1616 12.1869 13.117L15.1361 11.0005C15.1897 10.9623 15.2124 10.9003 15.2124 10.8344V10.8341C15.2124 10.7679 15.1893 10.7061 15.1354 10.6677Z" fill="white"/>
<path d="M10.2987 12.7477H9.26032C9.18691 12.7477 9.1165 12.7769 9.06459 12.8288C9.01268 12.8807 8.98352 12.9511 8.98352 13.0245H8.9824V13.5061H2.47968V5.96482H5.31536C5.38877 5.96482 5.45918 5.93565 5.51109 5.88374C5.563 5.83183 5.59216 5.76143 5.59216 5.68802V2.85234H8.98224V8.6693H8.984C8.98555 8.74154 9.01531 8.8103 9.06693 8.86087C9.11854 8.91144 9.1879 8.93979 9.26016 8.93986H10.2986C10.4494 8.93986 10.5714 8.81922 10.5747 8.6693H10.5754V8.66322V8.66306V2.17922H10.5746V1.53602C10.5746 1.4626 10.5454 1.3922 10.4935 1.34029C10.4416 1.28838 10.3712 1.25922 10.2978 1.25922H5.03856L0.886719 5.41122V14.8223C0.886719 14.9752 1.01056 15.0991 1.16352 15.0991H10.2978C10.3712 15.0991 10.4416 15.0699 10.4935 15.018C10.5454 14.9661 10.5746 14.8957 10.5746 14.8223V14.4306H10.5754V13.0242C10.5753 12.9508 10.5462 12.8805 10.4943 12.8287C10.4424 12.7768 10.3721 12.7477 10.2987 12.7477Z" fill="white"/>
<path d="M3.49219 10.0771V11.554H3.93939V11.0891H4.28035C4.62579 11.0891 4.81171 10.8588 4.81171 10.5841C4.81171 10.3073 4.62579 10.0771 4.28035 10.0771H3.49219ZM4.35795 10.5841C4.35795 10.6616 4.29811 10.6993 4.22291 10.6993H3.93939V10.4668H4.22275C4.29811 10.4668 4.35795 10.5044 4.35795 10.5841Z" fill="white"/>
<path d="M5.04492 10.0771V11.554H5.707C6.16988 11.554 6.51532 11.286 6.51532 10.8144C6.51532 10.3427 6.16988 10.0771 5.70492 10.0771H5.04492ZM6.06124 10.8145C6.06124 11.0006 5.92844 11.1644 5.70476 11.1644H5.49212V10.4668H5.70684C5.94604 10.4668 6.06124 10.6152 6.06124 10.8145Z" fill="white"/>
<path d="M7.90759 10.4668V10.0771H6.78711V11.554H7.23431V11.0027H7.89191V10.6129H7.23431V10.4668H7.90759Z" fill="white"/>
</g>
<defs>
<clipPath id="clip0">
<rect x="0.0488281" y="0.179199" width="16" height="16" fill="white"/>
</clipPath>
</defs>
</svg>
