<svg xmlns="http://www.w3.org/2000/svg" viewBox="0 0 71.89 93.25"><defs><style>.cls-1{fill:#9292fc;}.cls-2{fill:#4f4faa;}.cls-3{fill:#fff;}</style></defs><title>Asset 23</title><g id="Layer_2" data-name="Layer 2"><g id="Layer_1-2" data-name="Layer 1"><path class="cls-1" d="M54.72.74c-1.11-1.11-2.33-.49-2.33.73V17.05c0,1.6.36,2.21,2,2.21H69.81c1.59,0,2.08-1.35,1-2.45Z"/><path class="cls-2" d="M47.23,19.51V4.05a4,4,0,0,0-4-4H5.52C2.58,0,0,2,0,4.91V88.22a5,5,0,0,0,5,5H66.62A5.23,5.23,0,0,0,71.89,88V28.34a4.61,4.61,0,0,0-4.53-4.54H51A4.11,4.11,0,0,1,47.23,19.51Z"/><path class="cls-3" d="M12.4,47.4l9.37,10.48a3.33,3.33,0,0,0,5,0L36.12,47.4a3.34,3.34,0,0,0-2.49-5.56H30V29.05a3.46,3.46,0,0,0-3.46-3.46H22a3.46,3.46,0,0,0-3.46,3.46V41.84H14.89A3.34,3.34,0,0,0,12.4,47.4Z"/><path class="cls-3" d="M61.24,53.89,51.87,43.41a3.33,3.33,0,0,0-5,0L37.52,53.89A3.35,3.35,0,0,0,40,59.46h3.62V72.24A3.46,3.46,0,0,0,47.1,75.7h4.57a3.46,3.46,0,0,0,3.46-3.46V59.46h3.62A3.34,3.34,0,0,0,61.24,53.89Z"/></g></g></svg>