<svg id="Layer_1" data-name="Layer 1" xmlns="http://www.w3.org/2000/svg" viewBox="0 0 64 64"><defs><style>.cls-1,.cls-4{fill:#fce832;}.cls-1,.cls-2,.cls-3,.cls-4,.cls-5{stroke:#273751;}.cls-1,.cls-2,.cls-3,.cls-4{stroke-miterlimit:10;}.cls-1{stroke-width:1.04px;}.cls-2,.cls-3{fill:#febf36;}.cls-2,.cls-5{stroke-width:1.11px;}.cls-3,.cls-4{stroke-width:1.17px;}.cls-5{fill:#fff;stroke-linecap:round;stroke-linejoin:round;}</style></defs><title>quick-collect</title><rect class="cls-1" x="11.15" y="12.3" width="33.47" height="46.84" rx="4.04" ry="4.04" transform="translate(-7.83 63.6) rotate(-90)"/><path class="cls-2" d="M7.79,21.34v0a2.42,2.42,0,0,0,2.11,2.4H52.51a4.05,4.05,0,0,1,4,4s.1,12.84.1,15.06L56.55,57a4,4,0,0,1-3.93,4H8.5a4.05,4.05,0,0,1-4-4V23.77h0V23a4.05,4.05,0,0,1,4-4H9.65A2.44,2.44,0,0,0,7.79,21.34Z"/><path class="cls-3" d="M58.94,37.3H46.39A4.68,4.68,0,0,0,41.72,42v1.75a4.68,4.68,0,0,0,4.67,4.67H58.94Z"/><circle class="cls-4" cx="49.09" cy="42.92" r="3.14"/><polygon class="cls-5" points="29.98 2.35 22.01 23.78 30.09 23.89 23.25 40.61 44.34 16.38 34.8 16.38 45.01 2.24 29.98 2.35"/></svg>