<svg width="10" height="10" viewBox="0 0 10 10" fill="none" xmlns="http://www.w3.org/2000/svg">
<path d="M9.77295 4.99084C9.77789 7.65959 7.60146 9.84186 4.93271 9.84373C3.78008 9.84455 2.72133 9.44275 1.88932 8.77125C1.67297 8.59664 1.6568 8.2724 1.8534 8.0758L2.07346 7.85574C2.2416 7.6876 2.51004 7.6692 2.69633 7.81699C3.30932 8.30342 4.08508 8.59375 4.9292 8.59375C6.91562 8.59375 8.52295 6.98611 8.52295 5C8.52295 3.01357 6.91531 1.40625 4.9292 1.40625C3.9758 1.40625 3.10988 1.77674 2.46693 2.38148L3.45822 3.37277C3.6551 3.56965 3.51566 3.90625 3.23727 3.90625H0.397949C0.225352 3.90625 0.0854492 3.76635 0.0854492 3.59375V0.754434C0.0854492 0.476035 0.422051 0.336602 0.618926 0.533457L1.58322 1.49775C2.45281 0.666719 3.63139 0.15625 4.9292 0.15625C7.60127 0.15625 9.76801 2.31992 9.77295 4.99084ZM6.23951 6.52959L6.43137 6.28291C6.59031 6.07855 6.5535 5.78404 6.34914 5.62512L5.5542 5.00682V2.96875C5.5542 2.70986 5.34434 2.5 5.08545 2.5H4.77295C4.51406 2.5 4.3042 2.70986 4.3042 2.96875V5.61818L5.58172 6.61182C5.78607 6.77074 6.08057 6.73395 6.23951 6.52959Z" fill="white"/>
</svg>
