<svg width="11" height="13" viewBox="0 0 11 13" fill="none" xmlns="http://www.w3.org/2000/svg">
<path d="M10.1937 4.42788L6.59375 0.827881H1.79375C1.47549 0.827881 1.17027 0.954309 0.945222 1.17935C0.720178 1.4044 0.59375 1.70962 0.59375 2.02788V11.6279C0.59375 11.9461 0.720178 12.2514 0.945222 12.4764C1.17027 12.7014 1.47549 12.8279 1.79375 12.8279H8.99375C9.31201 12.8279 9.61723 12.7014 9.84227 12.4764C10.0673 12.2514 10.1937 11.9461 10.1937 11.6279V4.42788ZM3.59375 11.0279H2.39375V5.62788H3.59375V11.0279ZM5.99375 11.0279H4.79375V7.42788H5.99375V11.0279ZM8.39375 11.0279H7.19375V9.22788H8.39375V11.0279ZM6.59375 5.02788H5.99375V2.02788L8.99375 5.02788H6.59375Z" fill="white"/>
</svg>
