<svg xmlns="http://www.w3.org/2000/svg" viewBox="0 0 71.89 93.25"><defs><style>.cls-1{fill:#9292fc;}.cls-2{fill:#4f4faa;}.cls-3{fill:#fff;}</style></defs><title>Asset 20</title><g id="Layer_2" data-name="Layer 2"><g id="Layer_1-2" data-name="Layer 1"><path class="cls-1" d="M54.72.74c-1.11-1.11-2.33-.49-2.33.73V17.05c0,1.6.36,2.21,2,2.21H69.81c1.59,0,2.08-1.35,1-2.45Z"/><path class="cls-2" d="M47.23,19.51V4.05a4,4,0,0,0-4-4H5.52C2.58,0,0,2,0,4.91V88.22a5,5,0,0,0,5,5H66.62A5.23,5.23,0,0,0,71.89,88V28.34a4.61,4.61,0,0,0-4.53-4.54H51A4.11,4.11,0,0,1,47.23,19.51Z"/><rect class="cls-3" x="17.67" y="51.93" width="36.55" height="20.85"/><polygon class="cls-3" points="49.31 38.33 22.59 38.33 17.67 48.75 54.22 48.75 49.31 38.33"/></g></g></svg>