<svg id="Layer_1" data-name="Layer 1" xmlns="http://www.w3.org/2000/svg" viewBox="0 0 64 64"><defs><style>.cls-1,.cls-6{fill:#fce832;}.cls-1,.cls-2,.cls-3,.cls-4,.cls-5,.cls-6{stroke:#273751;}.cls-1,.cls-4,.cls-5,.cls-6{stroke-miterlimit:10;}.cls-1{stroke-width:1.04px;}.cls-2{fill:#fff;}.cls-2,.cls-3{stroke-linecap:round;stroke-linejoin:round;}.cls-2,.cls-3,.cls-4{stroke-width:1.11px;}.cls-3{fill:none;}.cls-4,.cls-5{fill:#febf36;}.cls-5,.cls-6{stroke-width:1.17px;}</style></defs><title>send</title><rect class="cls-1" x="11.15" y="12.3" width="33.47" height="46.84" rx="4.04" ry="4.04" transform="translate(-7.83 63.6) rotate(-90)"/><path class="cls-2" d="M29.51,2.7a12.7,12.7,0,1,0,12.7,12.7A12.69,12.69,0,0,0,29.51,2.7Z"/><line class="cls-3" x1="30.13" y1="8.42" x2="30.13" y2="23.86"/><polyline class="cls-3" points="23.61 14.77 30.13 8.26 36.64 14.77"/><path class="cls-4" d="M7.79,21.34v0a2.42,2.42,0,0,0,2.11,2.4H52.51a4.05,4.05,0,0,1,4,4s.1,12.84.1,15.06L56.55,57a4,4,0,0,1-3.93,4H8.5a4.05,4.05,0,0,1-4-4V23.77h0V23a4.05,4.05,0,0,1,4-4H9.65A2.44,2.44,0,0,0,7.79,21.34Z"/><path class="cls-5" d="M58.94,37.3H46.39A4.68,4.68,0,0,0,41.72,42v1.75a4.68,4.68,0,0,0,4.67,4.67H58.94Z"/><circle class="cls-6" cx="49.09" cy="42.92" r="3.14"/></svg>