<svg xmlns="http://www.w3.org/2000/svg" viewBox="0 0 71.89 93.25"><defs><style>.cls-1{fill:#9292fc;}.cls-2{fill:#4f4faa;}.cls-3{fill:#fff;}</style></defs><title>Asset 26</title><g id="Layer_2" data-name="Layer 2"><g id="Layer_1-2" data-name="Layer 1"><path class="cls-1" d="M54.72.74c-1.11-1.11-2.33-.49-2.33.73V17.05c0,1.6.36,2.21,2,2.21H69.81c1.59,0,2.08-1.35,1-2.45Z"/><path class="cls-2" d="M47.23,19.51V4.05a4,4,0,0,0-4-4H5.52C2.58,0,0,2,0,4.91V88.22a5,5,0,0,0,5,5H66.62A5.23,5.23,0,0,0,71.89,88V28.34a4.61,4.61,0,0,0-4.53-4.54H51A4.11,4.11,0,0,1,47.23,19.51Z"/><path class="cls-3" d="M60.37,44.29H11.46a1.21,1.21,0,0,1-1.24-1.16V37.68a1.29,1.29,0,0,1,1.24-1.16h49a1.21,1.21,0,0,1,1.24,1.16v5.64A1.35,1.35,0,0,1,60.37,44.29Z"/><path class="cls-3" d="M60.37,49.7H11.46c-.74,0-1.24-.19-1.24-.37V47.6c0-.19.62-.37,1.24-.37h49c.74,0,1.24.18,1.24.37v1.79A2.19,2.19,0,0,1,60.37,49.7Z"/><path class="cls-3" d="M60.37,54.69H11.46c-.74,0-1.24-.19-1.24-.37V52.59c0-.19.62-.37,1.24-.37h49c.74,0,1.24.18,1.24.37v1.79A2.19,2.19,0,0,1,60.37,54.69Z"/><path class="cls-3" d="M60.37,70.39H11.46a1.21,1.21,0,0,1-1.24-1.17V63.77a1.29,1.29,0,0,1,1.24-1.16h49a1.21,1.21,0,0,1,1.24,1.16v5.64A1.36,1.36,0,0,1,60.37,70.39Z"/><path class="cls-3" d="M60.37,75.79H11.46c-.74,0-1.24-.19-1.24-.37V73.69c0-.19.62-.37,1.24-.37h49c.74,0,1.24.18,1.24.37v1.79A2.19,2.19,0,0,1,60.37,75.79Z"/><path class="cls-3" d="M60.37,80.78H11.46c-.74,0-1.24-.19-1.24-.37V78.68c0-.19.62-.37,1.24-.37h49c.74,0,1.24.18,1.24.37v1.79A2.19,2.19,0,0,1,60.37,80.78Z"/></g></g></svg>