<svg width="14" height="14" viewBox="0 0 14 14" fill="none" xmlns="http://www.w3.org/2000/svg">
<path d="M13.8856 12.2165L10.3226 8.65349C10.8202 7.83709 11.0838 6.8996 11.0846 5.94349C11.0846 3.04649 8.73856 0.700493 5.84356 0.699493C2.94856 0.699493 0.601562 3.04599 0.601562 5.94199C0.601562 8.83699 2.94806 11.182 5.84356 11.182C6.83706 11.182 7.76356 10.901 8.55456 10.421L12.1186 13.9845L13.8856 12.216V12.2165ZM2.60056 5.94249C2.60188 5.08289 2.94391 4.25886 3.5517 3.65098C4.15948 3.0431 4.98346 2.70095 5.84306 2.69949C6.70261 2.70068 7.52661 3.0427 8.13436 3.65055C8.74211 4.25839 9.084 5.08244 9.08506 5.94199C9.08374 6.80133 8.74182 7.6251 8.13422 8.2328C7.52662 8.84049 6.7029 9.18254 5.84356 9.18399C4.98413 9.18241 4.16036 8.84026 3.5527 8.2325C2.94503 7.62475 2.60302 6.80092 2.60156 5.94149L2.60056 5.94249Z" fill="#878787"/>
</svg>
