<svg xmlns="http://www.w3.org/2000/svg" viewBox="0 0 71.89 93.25"><defs><style>.cls-1{fill:#9292fc;}.cls-2{fill:#4f4faa;}.cls-3{fill:#fff;}</style></defs><title>Asset 24</title><g id="Layer_2" data-name="Layer 2"><g id="Layer_1-2" data-name="Layer 1"><path class="cls-1" d="M54.72.74c-1.11-1.11-2.33-.49-2.33.73V17.05c0,1.6.36,2.21,2,2.21H69.81c1.59,0,2.08-1.35,1-2.45Z"/><path class="cls-2" d="M47.23,19.51V4.05a4,4,0,0,0-4-4H5.52C2.58,0,0,2,0,4.91V88.22a5,5,0,0,0,5,5H66.62A5.23,5.23,0,0,0,71.89,88V28.34a4.61,4.61,0,0,0-4.53-4.54H51A4.11,4.11,0,0,1,47.23,19.51Z"/><path class="cls-3" d="M34.48,66.28a10.5,10.5,0,0,1,0-20.8V34.09a21.84,21.84,0,0,0,0,43.58Z"/><path class="cls-3" d="M37.48,45.49a10.5,10.5,0,0,1,9,10.39H57.79A21.84,21.84,0,0,0,37.48,34.09Z"/><path class="cls-3" d="M46,58.88a10.52,10.52,0,0,1-8.54,7.39V77.66a21.82,21.82,0,0,0,20.1-18.78Z"/></g></g></svg>